PathFileType	4	(X/Y/Z)	60_2_42_p0_0-438_filt_butterworth.trc
DataRate	CameraRate	NumFrames	NumMarkers	Units	OrigDataRate	OrigDataStartFrame	OrigNumFrames
60.0	60.0	6	27	m	60.0	273	438
Frame#	Time	RHip			RKnee			RAnkle			RBigToe			RSmallToe			RHeel			LHip			LKnee			LAnkle			LBigToe			LSmallToe			LHeel			Neck			Head			Nose			RShoulder			RElbow			RWrist			RThumb			RIndex			RPinky			LShoulder			LElbow			LWrist			LThumb			LIndex			LPinky			
		X1	Y1	Z1	X2	Y2	Z2	X3	Y3	Z3	X4	Y4	Z4	X5	Y5	Z5	X6	Y6	Z6	X7	Y7	Z7	X8	Y8	Z8	X9	Y9	Z9	X10	Y10	Z10	X11	Y11	Z11	X12	Y12	Z12	X13	Y13	Z13	X14	Y14	Z14	X15	Y15	Z15	X16	Y16	Z16	X17	Y17	Z17	X18	Y18	Z18	X19	Y19	Z19	X20	Y20	Z20	X21	Y21	Z21	X22	Y22	Z22	X23	Y23	Z23	X24	Y24	Z24	X25	Y25	Z25	X26	Y26	Z26	X27	Y27	Z27	
273	4.55	0.3601242892774668	0.45318328359908594	-0.2209407460479028	0.3518137787983132	0.6617577784098149	0.22267884335308147	0.3541014230267559	0.823541702318196	0.5906157716293582	0.2927706156793562	0.6681878449134984	0.6728945609283703	0.3723996609207709	0.6813521142461859	0.6707598282491487	0.33097305388038223	0.9459509365110752	0.6430107480814689	0.14176821110193039	0.476658281017476	-0.22427375430325264	0.14687269376466142	0.700262526424373	0.20297374610698796	0.15710293071350095	0.8785144439554802	0.5882736900753424	0.12777428874757157	0.6032465821189452	0.6567047131998738	0.07639366959840041	0.6805513659916683	0.6592811446926191	0.1683101833727313	0.9297097544668372	0.6297100770975445	0.260481071922141	0.2875263294645084	-0.7408523586297686	0.2574298634674527	0.17756097735217485	-0.9514260997545008	0.25201569333367585	0.17033345661873336	-0.8385325895204081	0.4317075906877163	0.33968601917190416	-0.6585044276372136	0.47268594819599535	0.3764081620860518	-0.39694690585875503	0.46861368614027654	0.4270326461301645	-0.14014345567583386	0.38351814329593886	0.44606139114869575	-0.0050267093023163125	0.40259340790722964	0.46030932071055697	0.03197969671977946	0.4689775532034708	0.46217263287806015	0.016624785234405703	0.09622108301685725	0.3488365071537571	-0.6737665439599659	0.0494278238559884	0.5000452529845191	-0.4308638111031448	0.03421675401414375	0.48778019257999017	-0.17347964162462523	0.09009804808337285	0.5202492059803668	-0.04719365578593136	0.06702309988981188	0.4735351473106795	-0.02305122912440499	0.021420815687470677	0.5374418970689552	-0.03664422386904017
274	4.566666666666666	0.35920223170075805	0.4569421929536719	-0.2211557700607912	0.35185510558972855	0.6617906385428001	0.22295483525587434	0.353749411964364	0.8237309156011146	0.5911811939065701	0.2927199367617419	0.6680441650811759	0.6728901768111717	0.3722540589984237	0.6821606413083847	0.6712277190378327	0.3309998950200637	0.9464160079314681	0.6429797147227889	0.14174789111050362	0.47711020039379975	-0.2229943171961157	0.14688028299971564	0.7002647436755746	0.20293234153083375	0.15710633779090794	0.8784871525163812	0.5883106423126772	0.1278852613682589	0.6031549245175791	0.6565912346484704	0.07654202142553232	0.6803915284907269	0.6588584995779582	0.16832020911593143	0.9297454969593191	0.6299207969617463	0.2613070369628114	0.285997646576095	-0.739788457518242	0.2574738222010962	0.17756175273528202	-0.9513826041111556	0.2520726111760666	0.17071739792708765	-0.8384436285603711	0.4317242514283872	0.33971181431925107	-0.6584004046660739	0.47192511864104864	0.37775493534674265	-0.39726154843422523	0.46853502261448904	0.42696955294752303	-0.1401602106628244	0.3835457995653494	0.44592533913794064	-0.005172212180772176	0.4026431415016156	0.46036080688963343	0.0319839898018606	0.4690279772141985	0.4649249428657949	0.015786460420019757	0.09624876797132823	0.3488271800324122	-0.6737210463604317	0.049505937682204314	0.500107283309817	-0.43090360388383603	0.03422057792369408	0.48768631187555755	-0.17348906937294234	0.09045410917280224	0.5202377725457267	-0.047271040230829425	0.06708047557271904	0.4737006672918409	-0.023127183339057163	0.021409842010279054	0.5376193867780725	-0.03671566749987039
275	4.583333333333333	0.35804143416538103	0.46214411402337174	-0.22106453195432144	0.3520061887025876	0.6621758606301651	0.22382587248181052	0.3527968481930145	0.8239665417960504	0.5928679791530648	0.2926998203388496	0.6680058960399116	0.6730730443073113	0.37010186615012813	0.677981677604379	0.6720769357418191	0.33108406088027614	0.9465326126472359	0.6429680621811458	0.14174578431614698	0.47727434357881504	-0.22204341069880248	0.14690543110382145	0.7001848430423318	0.20291113585709974	0.15712070994536506	0.8783790319468517	0.588395549231906	0.1281699346273236	0.6029189320643431	0.6559671310413772	0.07684015253374887	0.680082927543353	0.6578501255306276	0.1683319776936955	0.9297498978440597	0.6300048789293669	0.26187832363151736	0.2831738046344449	-0.7367017870253981	0.2574293217723804	0.17784210032727574	-0.9514239638266068	0.25209131044596467	0.17120557737409275	-0.8382923649884977	0.43176705287994144	0.3398753582889966	-0.658011374512197	0.4698269384620386	0.3813670215667633	-0.3982392220497025	0.46844031862680574	0.42695205786336526	-0.1401539387762503	0.3837609814150397	0.4457954958603288	-0.005623082132625346	0.40275365380179334	0.4603764741558245	0.03199949562016395	0.46920179366114934	0.47049032639119215	0.015510618484136558	0.09625556072857457	0.3487709434377021	-0.6737093043157635	0.0495506253174995	0.5001508964218369	-0.43135813864176675	0.03422223793538678	0.4875428796594516	-0.1735251052142021	0.09142756413015125	0.5203035643596693	-0.04795723671372017	0.06718829757212785	0.47398076221796304	-0.023289587902097703	0.021402058231477682	0.5371147363617829	-0.038128017033568454
276	4.6	0.3572438260674471	0.46658140311956425	-0.22030649703025063	0.35222345151019413	0.6629217579109564	0.22511675011129656	0.35153626385912135	0.8242475075583393	0.5952384742001011	0.29269022942289835	0.6680257363127158	0.6735088752680941	0.36711606200012664	0.6720036465960025	0.6730504120607583	0.33117487650019506	0.9464430131986513	0.642984777250347	0.1417704604047773	0.47729171571662893	-0.22167477023978022	0.14690866836572147	0.7000078049969791	0.20287710560894778	0.15715419257761637	0.8782156181841336	0.5884629249679687	0.12853699999619805	0.6025334791821911	0.6547599524995095	0.077190129638663	0.6797193187229669	0.6565701046377921	0.16834424004743234	0.9297349823513168	0.6296037677087946	0.2619984547085327	0.27958466080173117	-0.7329315745266907	0.2574179766699593	0.178028186289997	-0.9514480421251217	0.2520740306383326	0.17154442074943504	-0.8381446052572092	0.43185882172400863	0.34026980747116614	-0.6571912539436826	0.46706381699162014	0.3863805451913746	-0.3992066515120294	0.46838411908120164	0.42702916808908475	-0.14013842713531222	0.38411761249899773	0.4457182589545728	-0.006545578934159454	0.4027565723587279	0.4602978175400895	0.032022399325285514	0.4696020199608913	0.47634197614656604	0.015634944819483874	0.09625486614027705	0.3487008339549104	-0.6736979539137918	0.049575170939762624	0.500097749418899	-0.4324046528738241	0.03423483396931343	0.4873139637931266	-0.1735786296566842	0.09281759025209853	0.520482806875359	-0.04939196080486631	0.06731031582893134	0.47423048580986643	-0.02347896691035227	0.021374331434342284	0.5361362541771917	-0.040211626990806056
277	4.616666666666666	0.3570163499570605	0.4690703131821581	-0.21908756037561022	0.3524047820166376	0.6636984581847554	0.22622602468662423	0.3505693751714181	0.8244296962044246	0.5968932317736688	0.2926930419410016	0.6681157243657698	0.674227860996227	0.3652285879889844	0.6687879315215592	0.6739913761089854	0.33124666517854373	0.9463719092158736	0.6430419084765417	0.14181105060439247	0.4772601035027925	-0.22167973452777	0.14686523274312618	0.699736563965849	0.20274305622963606	0.15719891435705446	0.878072551414263	0.5884462779167666	0.1287673847545051	0.6021364038742981	0.6535489961824253	0.07743959524408993	0.6794258866442924	0.6556138563127638	0.16834546170829176	0.9297211889256307	0.6284637666350181	0.26185414953509595	0.27670812492664065	-0.7302782591633861	0.2574485941167628	0.1781053783706685	-0.9514611820085374	0.25214262953496885	0.17164114661693042	-0.8381364757909688	0.4319825427274181	0.3408039992620736	-0.6561405476662725	0.46494457004358297	0.39043502252693796	-0.3997744964488481	0.4683880094543481	0.4271578690768907	-0.1401234223743926	0.3843834368342048	0.4457119946558461	-0.007421203041581863	0.40230979282044665	0.4600722603865044	0.03203761757783759	0.46997694453104993	0.47905839330712596	0.01581780151885501	0.09625713657141469	0.3486509386493763	-0.6736744830085812	0.04964339503924095	0.4996777579568804	-0.43361836987711205	0.034239298905973777	0.48707904651998213	-0.1736311399724765	0.09402354553221312	0.5207192217536414	-0.05088925338901973	0.06738474568660496	0.47431200765751996	-0.023606648230132248	0.021285153373004632	0.5352545529853854	-0.04172652031554011
278	4.633333333333334	0.35707893811858915	0.46994388429623885	-0.21805658809528097	0.35248093489262133	0.6641394518423217	0.22668804930652214	0.3501147580071346	0.8242620540895577	0.5970088530318984	0.2927156262218925	0.668286907850197	0.675242669932714	0.364908928816835	0.6689391073076427	0.6747105115655375	0.33131977669226353	0.9463928006113387	0.6431371993758129	0.14185648691054992	0.4771957363024377	-0.22177579685349427	0.14680452320005172	0.6994098841473457	0.20246332554069188	0.15722365946641487	0.8779937263252329	0.5883311864374059	0.1286827673232302	0.6019303216199711	0.6533146305263755	0.07753438993751316	0.6792843962781463	0.6552337477188788	0.1683171796493906	0.9297027527586623	0.6268776878750649	0.2617578308547432	0.2756924624921941	-0.7295349053458945	0.25749839643655215	0.17815053305829562	-0.9514836345275086	0.2525992186721848	0.17157166270892238	-0.8385284376134035	0.4320900252375171	0.34125789335498585	-0.6553225490432169	0.4641408538227817	0.3918740009450667	-0.39990768078257777	0.4684312234068768	0.42728466407967514	-0.14011832187032888	0.38440423350076597	0.44571673858098654	-0.00786543621081381	0.4011725941346789	0.45975054250975933	0.0320389573988895	0.469712017518102	0.4786760588022877	0.015874239460082356	0.09626451748014744	0.34863028832343407	-0.6736528205311189	0.049763918588866037	0.4981599982049641	-0.43425643303114525	0.03421870327513861	0.4869098005570299	-0.17366338687573554	0.09456430378448594	0.5208276584248592	-0.05156855523090817	0.06738715895402866	0.47425731636825286	-0.02364981489236441	0.02112349371601279	0.534688923628971	-0.0422446236861551
